HIERARCHY
ROOT RootJoint
{
    OFFSET   0.000000   0.000000   0.000000
    CHANNELS 6 Xposition Yposition Zposition Xrotation Yrotation Zrotation
    JOINT pelvis_lowerback
    {
        OFFSET   0.000000   0.093605   0.000000
        CHANNELS 3 Xrotation Yrotation Zrotation
        JOINT lowerback_torso
        {
            OFFSET   0.000000   0.100000   0.000000
            CHANNELS 3 Xrotation Yrotation Zrotation
            JOINT torso_head
            {
                OFFSET   0.000000   0.282350   0.000000
                CHANNELS 3 Xrotation Yrotation Zrotation
                End Site
                {
                    OFFSET   0.000000   0.192650   0.000000
                }
            }
            JOINT rTorso_Clavicle
            {
                OFFSET  -0.001000   0.157500   0.000000
                CHANNELS 3 Xrotation Yrotation Zrotation
                JOINT rShoulder
                {
                    OFFSET  -0.117647   0.000000   0.000000
                    CHANNELS 3 Xrotation Yrotation Zrotation
                    JOINT rElbow
                    {
                        OFFSET  -0.245000   0.000000   0.000000
                        CHANNELS 3 Xrotation Yrotation Zrotation
                        JOINT rWrist
                        {
                            OFFSET  -0.240000   0.000000   0.000000
                            CHANNELS 3 Xrotation Yrotation Zrotation
                            End Site
                            {
                                OFFSET  -0.116353  -0.002500   0.000000
                            }
                        }
                    }
                }
            }
            JOINT lTorso_Clavicle
            {
                OFFSET   0.001000   0.157500   0.000000
                CHANNELS 3 Xrotation Yrotation Zrotation
                JOINT lShoulder
                {
                    OFFSET   0.117647   0.000000   0.000000
                    CHANNELS 3 Xrotation Yrotation Zrotation
                    JOINT lElbow
                    {
                        OFFSET   0.245000   0.000000   0.000000
                        CHANNELS 3 Xrotation Yrotation Zrotation
                        JOINT lWrist
                        {
                            OFFSET   0.240000   0.000000   0.000000
                            CHANNELS 3 Xrotation Yrotation Zrotation
                            End Site
                            {
                                OFFSET   0.116353  -0.002500   0.000000
                            }
                        }
                    }
                }
            }
        }
    }
    JOINT rHip
    {
        OFFSET  -0.100000  -0.051395   0.000000
        CHANNELS 3 Xrotation Yrotation Zrotation
        JOINT rKnee
        {
            OFFSET   0.000000  -0.410000   0.000000
            CHANNELS 3 Xrotation Yrotation Zrotation
            JOINT rAnkle
            {
                OFFSET   0.000000  -0.390000   0.000000
                CHANNELS 3 Xrotation Yrotation Zrotation
                JOINT rToeJoint
                {
                    OFFSET   0.000000  -0.050000   0.130000
                    CHANNELS 3 Xrotation Yrotation Zrotation
                    End Site
                    {
                        OFFSET  -0.010000   0.002000   0.060000
                    }
                }
            }
        }
    }
    JOINT lHip
    {
        OFFSET   0.100000  -0.051395   0.000000
        CHANNELS 3 Xrotation Yrotation Zrotation
        JOINT lKnee
        {
            OFFSET   0.000000  -0.410000   0.000000
            CHANNELS 3 Xrotation Yrotation Zrotation
            JOINT lAnkle
            {
                OFFSET   0.000000  -0.390000   0.000000
                CHANNELS 3 Xrotation Yrotation Zrotation
                JOINT lToeJoint
                {
                    OFFSET   0.000000  -0.050000   0.130000
                    CHANNELS 3 Xrotation Yrotation Zrotation
                    End Site
                    {
                        OFFSET   0.010000   0.002000   0.060000
                    }
                }
            }
        }
    }
}
MOTION
Frames: 14
Frame Time:   0.008333
 -2.761354   0.863166   4.591869 115.971131 -74.969656 112.617699  42.578847  -0.938488  -0.788503   3.330095  -2.373725  -0.830285 -10.371882   3.757334  -6.664242  -0.715734  12.247202  11.013747  -2.641702  -1.956593  49.318630   0.003074  24.786865   0.000937  -6.596324   7.943846  -0.176498  -0.597996 -25.447385  -5.730213  15.458940 -31.104575 -34.107321   0.001243 -62.094449   0.001956   2.091080 -10.060010  -1.109269 -41.658253  -0.058966 -10.852714  42.338679   0.000566   0.000297  -5.173781  -6.786906  -0.338966  -3.266537  -0.002230  -0.002881 -38.277442  10.243222  13.810361  45.659043   0.000014   0.000329 -22.255704  10.059948   5.657146  -0.971207   0.002403   0.002315
 -2.763647   0.862967   4.591922 116.569284 -75.073257 113.407052  42.577391  -1.010980  -0.532541   3.269976  -2.375223  -0.743377 -10.484078   3.718211  -6.718861  -0.669045  12.255983  10.906078  -2.596187  -1.931599  49.291001   0.002966  24.942157   0.000857  -6.598936   7.968320  -0.143898  -0.508364 -25.377718  -5.782507  15.719497 -30.989376 -34.048866   0.001252 -62.187965   0.002086   2.101131 -10.054989  -1.034988 -41.610414  -0.146880 -10.795863  42.505577  -0.000018   0.000038  -5.365061  -7.012018  -0.603474  -3.120241  -0.001830  -0.002802 -37.981173  10.622483  13.740718  45.760871   0.000062   0.000384 -22.443702  10.065114   5.572148  -0.636924   0.002142   0.002265
 -2.765968   0.862657   4.591839 117.095964 -75.193020 114.139754  42.576931  -1.081889  -0.267990   3.214958  -2.382654  -0.651815 -10.594837   3.680113  -6.770358  -0.624736  12.262233  10.792944  -2.554052  -1.910863  49.251013   0.002827  25.085253   0.000771  -6.601989   7.983853  -0.127713  -0.413839 -25.314112  -5.829687  15.972266 -30.880673 -33.995196   0.001220 -62.273328   0.002125   2.111800 -10.049642  -0.942487 -41.545332  -0.220999 -10.759883  42.701322  -0.000546  -0.000160  -5.542077  -7.223850  -0.852279  -2.980718  -0.001509  -0.002670 -37.695857  10.999346  13.663013  45.895993   0.000119   0.000494 -22.607162  10.060023   5.485655  -0.325936   0.001887   0.002219
 -2.768300   0.862261   4.591611 117.611306 -75.307395 114.874822  42.570302  -1.144076  -0.012745   3.161220  -2.387497  -0.561472 -10.700351   3.644704  -6.816804  -0.583173  12.266211  10.680977  -2.515116  -1.892603  49.207448   0.002685  25.218464   0.000678  -6.604848   7.997478  -0.126120  -0.317389 -25.251437  -5.873441  16.213895 -30.776186 -33.947464   0.001146 -62.349452   0.002074   2.122187 -10.044769  -0.852392 -41.477900  -0.287123 -10.731651  42.892542  -0.000958  -0.000301  -5.707467  -7.421010  -1.085358  -2.850816  -0.001268  -0.002512 -37.414900  11.357193  13.576894  46.042729   0.000146   0.000584 -22.762578  10.046906   5.403601  -0.281172   0.001526   0.001824
 -2.770635   0.861797   4.591227 118.119527 -75.411716 115.615157  42.558602  -1.197059   0.230064   3.108279  -2.388039  -0.474115 -10.800496   3.611864  -6.859098  -0.544895  12.269412  10.573364  -2.479494  -1.875681  49.163695   0.002550  25.342925   0.000579  -6.607580   8.011812  -0.132543  -0.220494 -25.189180  -5.913407  16.444259 -30.675421 -33.904610   0.001047 -62.417398   0.001963   2.132119 -10.040272  -0.764266 -41.412075  -0.348219 -10.707020  43.072243  -0.001266  -0.000395  -5.862402  -7.604456  -1.303576  -2.730980  -0.001093  -0.002340 -37.139901  11.696983  13.484188  46.195319   0.000144   0.000646 -22.910042  10.031670   5.325634  -0.288950   0.001219   0.001452
 -2.772967   0.861274   4.590679 118.615391 -75.505002 116.354522  42.543465  -1.241336   0.460072   3.056709  -2.384183  -0.390144 -10.895280   3.581393  -6.897924  -0.510105  12.272717  10.471595  -2.447171  -1.859459  49.121299   0.002425  25.459422   0.000477  -6.610195   8.027681  -0.142745  -0.124265 -25.127663  -5.949801  16.663367 -30.578427 -33.865972   0.000937 -62.478127   0.001816   2.141584 -10.036055  -0.677265 -41.349221  -0.405343 -10.684297  43.239592  -0.001486  -0.000452  -6.007603  -7.775141  -1.507813  -2.620756  -0.000965  -0.002162 -36.871798  12.019129  13.386033  46.350756   0.000116   0.000683 -23.049444  10.015031   5.251766  -0.337800   0.000973   0.001127
 -2.775293   0.860699   4.589964 119.091144 -75.587417 117.084273  42.526293  -1.277722   0.677815   3.007169  -2.376339  -0.309478 -10.984772   3.553104  -6.933704  -0.478759  12.276572  10.376294  -2.418004  -1.843609  49.081012   0.002310  25.568564   0.000372  -6.612694   8.045239  -0.154310  -0.029516 -25.067350  -5.983123  16.871312 -30.485416 -33.831177   0.000825 -62.532511   0.001650   2.150591 -10.032061  -0.591191 -41.289755  -0.459013 -10.662707  43.395102  -0.001637  -0.000478  -6.143666  -7.933971  -1.698920  -2.519489  -0.000873  -0.001981 -36.611454  12.324468  13.283416  46.507113   0.000068   0.000702 -23.180963   9.997380   5.181814  -0.418355   0.000787   0.000855
 -2.777535   0.859919   4.589047 119.116186 -75.796610 117.443325  42.564884  -1.411102   0.919626   2.963799  -2.401138  -0.228489 -11.134168   3.495609  -7.025920  -0.429098  12.307622  10.298780  -2.411521  -1.873212  48.985598   0.002132  25.668308   0.000276  -6.636284   8.057718  -0.087598   0.015991 -25.102344  -6.028859  17.065003 -30.406354 -33.723258   0.000675 -62.564356   0.001435   2.378136 -10.033654  -0.548956 -41.155366  -0.473032 -10.744457  43.720984  -0.002126  -0.000281  -6.202994  -8.085772  -2.003972  -2.305185  -0.000592  -0.001841 -36.572159  12.608762  13.169715  47.085687   0.000222   0.001883 -22.811642   9.910857   4.867723  -1.478041  -0.000362  -0.000246
 -2.779830   0.858940   4.587993 119.277121 -76.030745 117.978630  42.612314  -1.537219   1.123721   2.936547  -2.433283  -0.174131 -11.281743   3.442169  -7.122663  -0.378910  12.332002  10.218620  -2.403378  -1.905569  48.883913   0.001941  25.758055   0.000194  -6.658820   8.055896  -0.040223   0.083724 -25.139130  -6.061695  17.271006 -30.322309 -33.618985   0.000544 -62.570623   0.001170   2.372258 -10.027287  -0.420260 -40.978451  -0.476261 -10.831549  44.070708  -0.002674  -0.000131  -6.255398  -8.227679  -2.289565  -2.094560  -0.000450  -0.001724 -36.534246  12.883403  13.043393  47.768805   0.000225   0.002925 -22.388429   9.807968   4.567059  -2.717201  -0.000949  -0.000750
 -2.782060   0.858112   4.587226 120.004137 -76.157048 119.032561  42.672527  -1.617362   1.327606   2.885904  -2.445103  -0.164025 -11.423900   3.396808  -7.219352  -0.355063  12.376261  10.114997  -2.415436  -1.923362  48.758678   0.001763  25.846184   0.000175  -6.678404   8.065451  -0.027596   0.097837 -25.193996  -6.132530  17.419465 -30.263592 -33.525405   0.000453 -62.593781   0.001033   2.603471 -10.026118  -0.330312 -40.852388  -0.458377 -11.023714  44.532740  -0.002982  -0.000888  -6.556906  -8.551040  -2.617910  -4.466970  -0.004392   0.009498 -36.500097  13.155413  12.983158  48.427702  -0.000102   0.003001 -21.963124   9.712977   4.290729  -3.990558  -0.001174   0.000186
 -2.784245   0.857374   4.586486 121.034393 -76.211191 120.351804  42.726071  -1.686117   1.511228   2.833733  -2.448103  -0.154607 -11.556412   3.354342  -7.307643  -0.346788  12.428244  10.009535  -2.438779  -1.931430  48.633329   0.001615  25.934034   0.000207  -6.696714   8.102726  -0.035316   0.117558 -25.247122  -6.191145  17.565161 -30.207302 -33.436602   0.000394 -62.610911   0.000922   2.725883 -10.021491  -0.211381 -40.748426  -0.435830 -11.176973  44.916641  -0.003097  -0.001565  -6.814624  -8.722836  -2.877685  -6.518207  -0.006412   0.015245 -36.463725  13.393784  12.966339  49.051139  -0.000644   0.002563 -21.548145   9.628127   4.035286  -5.248736  -0.001099   0.001851
 -2.786404   0.856685   4.585728 122.177841 -76.224843 121.763899  42.774352  -1.755404   1.688350   2.785100  -2.451672  -0.139295 -11.679697   3.313721  -7.388807  -0.342904  12.478162   9.906623  -2.464327  -1.936740  48.512687   0.001492  26.018377   0.000257  -6.714582   8.156345  -0.053328   0.143096 -25.294116  -6.239047  17.708039 -30.150004 -33.352076   0.000343 -62.621796   0.000808   2.825642 -10.126665  -0.095832 -40.658845  -0.417718 -11.303995  45.260000  -0.003144  -0.002084  -7.052177  -8.858673  -3.112173  -8.383857  -0.007638   0.018882 -36.425094  13.630072  12.970162  49.636864  -0.001119   0.002072 -21.144315   9.576427   3.796373  -6.471393  -0.000942   0.003044
 -2.788548   0.856027   4.584939 123.367675 -76.209438 123.209306  42.818121  -1.824792   1.862671   2.742672  -2.457781  -0.117913 -11.794911   3.275255  -7.463396  -0.338384  12.522721   9.808141  -2.487919  -1.942483  48.398261   0.001388  26.097308   0.000307  -6.731984   8.213596  -0.076647   0.176090 -25.336084  -6.281175  17.847848 -30.095723 -33.276186   0.000306 -62.631665   0.000715   2.865457 -10.098396   0.027196 -40.579872  -0.402815 -11.413797  45.577226  -0.003150  -0.002463  -7.276501  -8.979290  -3.329578 -10.130189  -0.008428   0.021252 -36.381256  13.864113  12.984732  50.186557  -0.001508   0.001612 -20.754473   9.545565   3.573614  -7.652623  -0.000719   0.003863
 -2.790440   0.855161   4.583996 123.729746 -76.248969 123.888926  42.816642  -1.899631   2.073029   2.675999  -2.502083  -0.041750 -11.959856   3.205649  -7.575404  -0.308443  12.622492   9.736092  -2.435152  -2.030458  48.210543   0.001132  26.105900   0.000244  -6.769034   8.257942  -0.082269   0.184769 -25.381427  -6.363742  17.912074 -30.022464 -33.154497   0.000252 -62.619052   0.000531   3.040042  -9.639837  -0.225211 -40.559145  -0.362937 -11.645754  45.963903  -0.003029  -0.002502  -7.639382  -9.068506  -3.619239 -11.733041  -0.010303   0.020012 -36.787916  14.006050  13.043418  51.363576  -0.002044   0.002837 -19.561228   9.344294   3.050003 -10.412614  -0.003710   0.007358
